<?xml version="1.0" encoding="UTF-8"?> <svg xmlns="http://www.w3.org/2000/svg" width="123" height="12" viewBox="0 0 123 12" fill="none"><path d="M7.18588 8.00573C7.13471 8.88689 6.34653 9.49451 5.45597 9.43373H3.12208V6.4663L5.24101 6.41567C6.40794 6.41567 7.19612 7.02334 7.19612 7.95512V8.00573H7.18588ZM6.85835 3.48872C6.79693 4.26856 6.07015 4.81546 5.29218 4.7547H3.12208V2.12146H5.1284C6.13156 2.12146 6.85835 2.66836 6.85835 3.38744V3.48872ZM7.57489 5.47378C8.69068 4.92687 9.02845 4.36984 9.02845 3.27603C9.02845 2.12146 8.41426 1.12893 7.35995 0.632661C6.79693 0.409848 6.13156 0.359209 4.23784 0.359209H0V2.12146H0.839379V9.4439H0V11.2061H5.85518C7.97407 11.2061 9.42769 10.0009 9.42769 8.1779C9.53005 6.96257 8.75209 5.85864 7.57489 5.47378ZM12.7033 6.00043C12.8671 5.12943 13.6348 4.42048 14.5561 4.42048H14.6072C15.4773 4.42048 16.245 5.12943 16.245 6.05107L12.7033 6.00043ZM12.5907 7.46898H18.4868C18.538 6.37515 18.2104 5.34212 17.6679 4.42048C16.9616 3.32667 15.7537 2.72913 14.4947 2.72913C12.2017 2.72913 10.5127 4.53189 10.5127 7.03347C10.5127 9.53503 12.2017 11.3378 14.4947 11.3378C16.46 11.3378 17.9341 10.244 18.3128 8.45136L16.2348 8.50204C16.0199 9.21096 15.3033 9.75787 14.5458 9.6971C14.1773 9.70719 12.8159 9.5958 12.5907 7.46898ZM28.0168 11.196H29.235V5.7371L25.4168 5.72698V5.7371L25.3657 6.73976H27.9656C27.9656 7.01321 27.9656 7.30691 27.9145 7.58037C27.6381 8.99828 26.42 10.0819 24.9255 10.1427C23.042 10.1427 21.6089 8.23868 21.6089 5.6257C21.6089 2.30376 23.5948 1.15931 24.9255 1.15931C25.8058 1.20995 26.6964 1.64544 27.2491 2.3544C27.5255 2.73926 27.7507 3.16462 27.8531 3.65076H29.0712V0.359209H27.9145V1.92903C27.2491 0.784579 26.031 0.0249899 24.6491 0.075629C22.1617 0.075629 20.1656 2.57721 20.1656 5.7371C20.1656 8.89698 22.1514 11.3378 24.7003 11.3378C25.5806 11.3378 26.4712 11.0137 27.1877 10.4162C27.5153 10.0921 27.7916 9.78823 28.0168 9.40338V11.196ZM36.0421 8.28929C35.8784 9.48442 34.8138 10.3453 33.5854 10.406C32.6948 10.406 31.9067 9.75787 31.8555 8.8362C31.8555 7.80322 32.6948 7.37778 35.2642 7.04359L36.0421 6.93219V8.28929ZM36.0421 11.196H38.4374L38.3248 10.1933H37.1579V5.69659C37.1579 3.64063 35.7043 2.88105 33.9744 2.88105C33.1964 2.88105 32.3571 3.09373 31.7429 3.59C31.2413 4.0255 30.9035 4.60278 30.7909 5.25096H32.0704C32.2957 4.16729 32.9098 3.80268 34.0768 3.80268C35.254 3.80268 35.9705 4.40022 35.9705 5.32186V6.13209L35.1925 6.18273C31.8452 6.50682 30.4531 7.26639 30.4531 8.8362V8.99827C30.5657 10.3554 31.7941 11.4391 33.1862 11.3277C34.3532 11.3277 35.4689 10.72 36.0319 9.68693V11.196H36.0421ZM49.7793 11.196H52.0927V10.1933H50.936V4.96738C50.936 3.54948 50.2194 2.72913 48.9604 2.72913C48.3053 2.72913 47.7013 3.00258 47.1997 3.43808C46.8722 3.76217 46.647 4.09639 46.432 4.47112C46.2171 3.32667 45.6131 2.719 44.5076 2.719C42.9721 2.719 42.2556 3.92422 41.8666 4.47112L41.8154 2.87092H39.3997V3.87358H40.6076V10.1933H39.3997V11.196H42.9721V10.1933H41.7642V6.11183C41.7642 5.35224 42.6958 3.76217 43.965 3.76217C44.7942 3.76217 45.1729 4.19767 45.1729 5.24084V11.196H47.5888V10.1933H46.3706V6.01055C46.3706 5.41301 47.1383 3.71153 48.5714 3.71153C49.3903 3.71153 49.7793 4.25843 49.7793 5.40288V11.196ZM60.4865 7.00308C60.4865 9.02863 59.6062 10.2845 58.1833 10.2845C56.8628 10.1731 55.8289 9.07931 55.8289 7.72218L55.7778 6.30426C55.7778 5.09904 56.9857 3.79256 58.1936 3.79256C59.555 3.78243 60.4865 4.98764 60.4865 7.00308ZM61.807 7.17526C61.807 4.77495 60.3841 2.87092 58.5109 2.87092C57.088 2.87092 56.1463 4.05588 55.8187 4.65342V0.075629H53.5156V1.07829H54.6109V10.1933H53.4541V11.196H55.8187V9.68693C56.3101 10.3453 57.0266 11.3378 58.5109 11.3378C60.2716 11.3378 61.807 9.41355 61.807 7.17526ZM62.4519 11.196H66.0039V10.1933H64.8984V0.075629H62.5133V1.00739H63.6803V10.1933H62.4621V11.196H62.4519ZM68.3276 6.39541C68.3276 6.12196 68.4402 5.84851 68.4913 5.58519C68.7677 4.60278 69.648 3.90396 70.692 3.8432C71.1833 3.79256 71.6852 4.00524 72.0741 4.32933C72.6268 4.92687 72.9035 5.63583 72.9035 6.39541H68.3276ZM68.2763 7.31708H74.2849C74.2849 4.44074 72.6367 2.86079 70.5896 2.86079C68.5528 2.86079 66.9559 4.70406 66.9559 7.09423C66.9559 9.5958 68.5528 11.3277 70.8148 11.3277C71.8588 11.3277 72.8012 10.8922 73.4562 10.1326C73.7838 9.74771 74.0089 9.37303 74.1212 8.88689L72.7496 8.9375C72.3092 9.91988 71.7056 10.3453 70.764 10.3453C70.211 10.3453 69.6582 10.1326 69.2181 9.74771C68.6653 9.22105 68.389 8.51213 68.2763 7.31708ZM81.9932 7.19552H79.1266L80.5602 2.37466L81.9932 7.19552ZM83.2624 11.196H85.7393V9.47425H84.9106L81.8908 0.359209H79.2494L76.2713 9.47425H75.4419V11.196H77.9802L78.6967 8.84637H82.5558L83.2624 11.196ZM97.1534 4.45086H97.8699V2.87092H94.5635V4.45086H95.3922L94.2868 9.31225L92.9153 2.87092H90.7659L89.3838 9.42364L88.2374 4.45086H89.0562V2.87092H85.7499V4.45086H86.4664L88.2784 11.196H90.4793L91.7993 5.42314L93.1814 11.196H95.3824L97.1534 4.45086ZM103.765 8.13738C103.715 9.11983 102.885 9.87943 101.893 9.87943C101.063 9.87943 100.511 9.4439 100.511 8.79569C100.511 7.65124 101.78 7.48924 103.704 7.32717H103.756V8.08677V8.13738H103.765ZM103.827 11.196H106.417V9.60597H105.7L105.752 5.74723C105.752 3.90396 104.533 2.87092 102.22 2.87092C100.234 2.87092 98.9139 3.90396 98.8009 5.53455L100.787 5.58519V5.53455C100.838 4.77495 101.227 4.28882 102.271 4.28882C103.315 4.28882 103.756 4.67368 103.756 5.9194C101.104 6.13209 98.3506 6.40554 98.3506 8.79569C98.3506 10.2643 99.6198 11.3479 101.279 11.3479C102.271 11.3479 103.213 10.9631 103.817 10.2136V11.196H103.827ZM112.395 4.66355C112.722 4.66355 113.05 4.71419 113.377 4.77495V2.84053C113.05 2.78989 112.774 2.72913 112.446 2.72913C111.515 2.72913 110.91 3.17475 110.368 4.22805V2.87092H107.574V4.5015H108.392V9.60597H107.574V11.196H111.402V9.60597H110.419V6.38528C110.48 5.38263 111.351 4.61291 112.395 4.66355ZM115.978 6.00043C116.142 5.12943 116.909 4.42048 117.83 4.42048H117.882C118.752 4.42048 119.519 5.12943 119.519 6.05107L115.978 6.00043ZM115.916 7.46898H121.813C121.864 6.37515 121.536 5.34212 120.993 4.42048C120.287 3.32667 119.08 2.72913 117.82 2.72913C115.528 2.72913 113.828 4.53189 113.828 7.03347C113.828 9.53503 115.517 11.3378 117.82 11.3378C119.785 11.3378 121.26 10.244 121.638 8.45136L119.56 8.50204C119.346 9.21096 118.629 9.75787 117.871 9.6971C117.503 9.70719 116.142 9.5958 115.916 7.46898Z" fill="white"></path></svg> 