<?xml version="1.0" encoding="UTF-8"?> <svg xmlns="http://www.w3.org/2000/svg" width="96" height="28" viewBox="0 0 96 28" fill="none"><g clip-path="url(#clip0_2438_4933)"><path d="M36.3235 10.7175C36.3874 10.9589 36.3075 11.1037 36.1158 11.1681L34.2789 11.7152C34.0552 11.7795 33.9434 11.7152 33.8636 11.4899C33.576 10.5405 32.9691 10.0416 31.8349 10.0416C30.1098 10.0416 29.5188 11.0715 29.5188 12.4554V15.6416C29.5188 17.0255 30.0938 18.0554 31.8349 18.0554C33.2566 18.0554 34.0073 17.3956 34.0073 15.9313V15.5129H32.1384C31.9787 15.5129 31.8829 15.4324 31.8829 15.2393V13.4692C31.8669 13.3405 31.9627 13.2117 32.1065 13.1956C32.1225 13.1956 32.1384 13.1956 32.1384 13.1956H36.2915C36.4672 13.1956 36.5631 13.2761 36.5631 13.4531V16.0922C36.5631 18.6025 34.7261 20.5014 31.8669 20.5014C28.4805 20.5014 26.8992 18.4738 26.8992 15.706V12.3428C26.8992 9.57495 28.4805 7.54736 31.8669 7.54736C34.5983 7.56346 35.8283 9.14047 36.3235 10.7175ZM45.6359 13.8554V20.0347C45.6519 20.1635 45.5401 20.2761 45.4123 20.2922C45.3963 20.2922 45.3963 20.2922 45.3804 20.2922H43.5115C43.3837 20.3083 43.2559 20.2117 43.2399 20.0669C43.2399 20.0508 43.2399 20.0347 43.2399 20.0347V19.0209C42.6968 19.9382 41.7225 20.5014 40.6522 20.4853C38.8792 20.4853 37.7451 19.3428 37.7451 17.5727C37.7451 15.8508 38.8153 14.837 41.4349 14.6439C41.994 14.5956 42.5691 14.5956 43.1441 14.6278V13.9359C43.1441 13.0186 42.6649 12.6485 41.8503 12.6485C41.0196 12.6485 40.78 12.9864 40.5564 13.5175C40.4765 13.7267 40.3967 13.7589 40.221 13.7106L38.3521 13.2278C38.1604 13.1795 38.1444 13.0669 38.1764 12.9382C38.4319 11.5864 39.7098 10.5887 41.9461 10.5887C44.3102 10.6048 45.6359 11.7474 45.6359 13.8554ZM43.1441 17.106V16.2048C42.6489 16.1887 42.1378 16.2048 41.6426 16.2531C40.6842 16.3658 40.189 16.6715 40.189 17.3956C40.189 18.0554 40.6363 18.4255 41.3551 18.4255C42.1857 18.4255 42.8406 17.9749 43.1441 17.106ZM52.3767 10.6048C53.5587 10.6048 54.3414 11.3129 54.7088 12.3267C55.4117 11.2968 56.2582 10.6048 57.4403 10.6048C59.0855 10.6048 60.028 11.9244 60.028 13.8876V20.0347C60.028 20.1956 59.8842 20.2922 59.7245 20.2922H57.7757C57.6 20.2922 57.4722 20.1956 57.4722 20.0347V14.3382C57.4722 13.4853 57.1048 12.9704 56.4339 12.9704C55.7311 12.9704 55.22 13.5497 54.9804 14.4347V20.0347C54.9963 20.1635 54.8845 20.2761 54.7567 20.2922H54.7408H52.6323C52.4726 20.2922 52.4087 20.1956 52.4087 20.0347V14.3382C52.4087 13.4853 52.0253 12.9704 51.3704 12.9704C50.6516 12.9704 50.1404 13.5818 49.9168 14.4669V20.0508C49.9328 20.1795 49.8369 20.2922 49.7092 20.3083C49.6932 20.3083 49.6772 20.3083 49.6612 20.3083H47.6007C47.4729 20.3244 47.3611 20.2278 47.3451 20.0991C47.3451 20.083 47.3451 20.0669 47.3451 20.0508V11.0715C47.3451 10.9428 47.4569 10.8301 47.5847 10.8301H47.6007H49.5814C49.7092 10.814 49.821 10.9106 49.8369 11.0554V11.0715V12.1497C50.38 11.3451 51.1947 10.6048 52.3767 10.6048ZM70.7142 10.814C70.7621 11.0393 70.6982 11.2002 70.4905 11.2646L68.6855 11.7956C68.4619 11.86 68.3501 11.7795 68.2702 11.5704C68.0146 10.7175 67.5674 10.0255 66.3215 10.0255C64.7721 10.0255 64.2769 11.0554 64.2769 12.4393V15.6255C64.2769 17.0094 64.8359 18.0393 66.3215 18.0393C67.6473 18.0393 68.1584 17.283 68.3661 16.3497C68.414 16.1405 68.5577 16.0439 68.7814 16.1244L70.5864 16.7037C70.794 16.7681 70.8579 16.929 70.81 17.1543C70.3787 19.0048 69.0529 20.5175 66.3055 20.5175C63.2067 20.5175 61.6572 18.4899 61.6572 15.7221V12.3589C61.6572 9.59104 63.2546 7.56346 66.3055 7.56346C68.989 7.56346 70.2509 8.99564 70.7142 10.814ZM79.7711 13.8554V20.0347C79.787 20.1635 79.6752 20.2761 79.5474 20.2922C79.5315 20.2922 79.5315 20.2922 79.5155 20.2922H77.6466C77.5188 20.3083 77.391 20.2117 77.375 20.0669C77.375 20.0508 77.375 20.0347 77.375 20.0347V19.0209C76.832 19.9382 75.8576 20.5014 74.7874 20.4853C73.0143 20.4853 71.8802 19.3428 71.8802 17.5727C71.8802 15.8508 72.9504 14.837 75.5701 14.6439C76.1291 14.5956 76.7042 14.5956 77.2792 14.6278V13.9359C77.2792 13.0186 76.8 12.6485 75.9854 12.6485C75.1547 12.6485 74.9151 12.9864 74.6915 13.5175C74.6117 13.7267 74.5318 13.7589 74.3561 13.7106L72.4872 13.2278C72.2955 13.1795 72.2795 13.0669 72.3115 12.9382C72.5671 11.5864 73.8449 10.5887 76.0812 10.5887C78.4453 10.6048 79.7711 11.7474 79.7711 13.8554ZM77.2632 17.106V16.2048C76.7681 16.1887 76.2569 16.2048 75.7617 16.2531C74.8033 16.3658 74.3082 16.6715 74.3082 17.3956C74.3082 18.0554 74.7554 18.4255 75.4742 18.4255C76.3208 18.4255 76.9597 17.9749 77.2632 17.106ZM87.0389 10.991V12.8255C87.0389 13.0508 86.9591 13.1313 86.7354 13.1313H86.4639C85.1062 13.1313 84.3075 13.7428 84.0359 14.7726V20.0508C84.0519 20.1795 83.9561 20.2922 83.8283 20.3083H83.8123H81.6719C81.5441 20.3083 81.4483 20.1956 81.4483 20.0669C81.4483 20.0669 81.4483 20.0669 81.4483 20.0508V11.0554C81.4483 10.9267 81.5441 10.814 81.6559 10.814C81.6719 10.814 81.6879 10.814 81.6879 10.814H83.6206C83.8283 10.814 83.8762 10.9428 83.8762 11.0876V12.3589C84.3235 11.5221 85.1541 10.7014 86.6077 10.7014C86.9751 10.7014 87.0389 10.7497 87.0389 10.991ZM90.3774 16.3497V16.7037C90.3774 17.7014 90.8885 18.3933 92.0865 18.3933C93.2526 18.3933 93.588 17.9428 93.8915 17.3795C94.0513 17.1221 94.1151 17.0899 94.3867 17.2025L95.7285 17.8945C96 18.0393 96.016 18.1681 95.9042 18.4255C95.3291 19.7451 93.8755 20.5014 92.0865 20.5014C89.3711 20.5014 87.9335 18.8761 87.9335 16.6554V14.4669C87.9335 12.3106 89.2752 10.6209 92.0546 10.6209C94.7062 10.6209 96 12.3106 96 14.4186V15.9313C96 16.1887 95.9201 16.3658 95.5528 16.3658L90.3774 16.3497ZM90.3774 14.3382V14.66H93.6519V14.3382C93.6519 13.4209 93.1408 12.6968 92.0226 12.6968C90.9045 12.6968 90.3774 13.4209 90.3774 14.3382Z" fill="white"></path><path d="M11.9002 0.112793H0.495169C0.303489 0.112793 0.143753 0.273712 0.143753 0.466815V17.1703C0.143753 23.1243 4.93577 27.968 10.8619 27.968H11.9002C17.8103 27.968 22.6023 23.1404 22.6023 17.1703V10.9105C22.6183 4.94038 17.8263 0.112793 11.9002 0.112793ZM19.184 17.3473C19.184 21.4024 16.213 24.476 11.6126 24.476C6.14974 24.476 3.594 21.2093 3.594 16.7358V11.3128C3.594 6.83923 6.14974 3.57256 11.6126 3.57256C16.0373 3.57256 18.0339 6.11509 18.8326 8.65762C18.9444 9.04383 18.8007 9.26911 18.4972 9.38176L15.5261 10.2668C15.1747 10.3795 14.983 10.2668 14.8712 9.91279C14.408 8.38406 13.4176 7.56337 11.6126 7.56337C8.8173 7.56337 7.87487 9.22084 7.87487 11.4576V16.607C7.87487 18.8438 8.80133 20.5013 11.6126 20.5013C13.9128 20.5013 15.1268 19.4231 15.1268 17.0737V16.4139H12.0599C11.8203 16.4139 11.6446 16.2691 11.6446 15.9795V13.1312C11.6446 12.8576 11.8043 12.6806 12.0599 12.6806H18.7527C19.0243 12.6806 19.184 12.8254 19.184 13.099V17.3473Z" fill="white"></path></g><defs><clipPath id="clip0_2438_4933"><rect width="96" height="28" fill="white"></rect></clipPath></defs></svg> 