<?xml version="1.0" encoding="UTF-8"?> <svg xmlns="http://www.w3.org/2000/svg" width="25" height="24" viewBox="0 0 25 24" fill="none"><g clip-path="url(#clip0_2438_4938)"><path d="M19.5402 4.36605H20.631V5.45683C20.631 5.74612 20.7459 6.02356 20.9505 6.22812C21.1551 6.43268 21.4325 6.5476 21.7218 6.5476C22.0111 6.5476 22.2885 6.43268 22.4931 6.22812C22.6976 6.02356 22.8126 5.74612 22.8126 5.45683V4.36605H23.9033C24.1926 4.36605 24.4701 4.25113 24.6746 4.04657C24.8792 3.84201 24.9941 3.56457 24.9941 3.27528C24.9941 2.98599 24.8792 2.70854 24.6746 2.50398C24.4701 2.29942 24.1926 2.1845 23.9033 2.1845H22.8126V1.09373C22.8126 0.804437 22.6976 0.526994 22.4931 0.322434C22.2885 0.117874 22.0111 0.00295393 21.7218 0.00295393C21.4325 0.00295393 21.1551 0.117874 20.9505 0.322434C20.7459 0.526994 20.631 0.804437 20.631 1.09373V2.1845H19.5402C19.251 2.1845 18.9735 2.29942 18.769 2.50398C18.5644 2.70854 18.4495 2.98599 18.4495 3.27528C18.4495 3.56457 18.5644 3.84201 18.769 4.04657C18.9735 4.25113 19.251 4.36605 19.5402 4.36605ZM7.54172 6.5476V17.4553C7.54172 17.7446 7.65664 18.0221 7.8612 18.2266C8.06576 18.4312 8.34321 18.5461 8.6325 18.5461C8.92179 18.5461 9.19923 18.4312 9.40379 18.2266C9.60835 18.0221 9.72327 17.7446 9.72327 17.4553V6.5476C9.72327 6.25831 9.60835 5.98087 9.40379 5.77631C9.19923 5.57175 8.92179 5.45683 8.6325 5.45683C8.34321 5.45683 8.06576 5.57175 7.8612 5.77631C7.65664 5.98087 7.54172 6.25831 7.54172 6.5476ZM23.467 8.72915C23.3266 8.75777 23.1933 8.81377 23.0745 8.89396C22.9558 8.97414 22.854 9.07693 22.775 9.19645C22.696 9.31598 22.6413 9.4499 22.6141 9.59056C22.5868 9.73123 22.5876 9.87589 22.6162 10.0163C23.0421 12.0846 22.7897 14.2351 21.8964 16.1486C21.0032 18.0621 19.5167 19.6366 17.6577 20.6383C15.7987 21.64 13.6662 22.0156 11.5768 21.7092C9.48745 21.4029 7.55254 20.431 6.05932 18.9377C4.56611 17.4445 3.59419 15.5096 3.28785 13.4202C2.9815 11.3309 3.35706 9.19838 4.35877 7.33936C5.36048 5.48034 6.93494 3.99388 8.84844 3.10063C10.7619 2.20738 12.9125 1.95496 14.9808 2.38084C15.2701 2.4387 15.5705 2.37927 15.816 2.21562C16.0615 2.05197 16.2319 1.79751 16.2897 1.50822C16.3476 1.21893 16.2882 0.918505 16.1245 0.673033C15.9609 0.427561 15.7064 0.257152 15.4171 0.199293C14.6189 0.0505676 13.8074 -0.0152287 12.9956 0.00295393C10.6225 0.00295393 8.30272 0.706655 6.32958 2.02507C4.35643 3.34348 2.81855 5.2174 1.91041 7.40984C1.00227 9.60228 0.764659 12.0148 1.22762 14.3423C1.69059 16.6698 2.83334 18.8077 4.51136 20.4857C6.18938 22.1637 8.32732 23.3065 10.6548 23.7694C12.9823 24.2324 15.3948 23.9948 17.5872 23.0867C19.7797 22.1785 21.6536 20.6406 22.972 18.6675C24.2904 16.6944 24.9941 14.3746 24.9941 12.0015C24.9964 11.1955 24.916 10.3914 24.7541 9.60177C24.728 9.45942 24.6738 9.32369 24.5947 9.20249C24.5156 9.08129 24.4132 8.97705 24.2934 8.89583C24.1736 8.81462 24.0388 8.75805 23.897 8.72944C23.7551 8.70082 23.6089 8.70072 23.467 8.72915ZM11.9048 8.72915V9.81993C11.9096 10.6272 12.2127 11.4041 12.7556 12.0015C12.2127 12.5988 11.9096 13.3758 11.9048 14.183V15.2738C11.9048 16.1417 12.2496 16.974 12.8633 17.5877C13.4769 18.2014 14.3093 18.5461 15.1771 18.5461H16.2679C17.1358 18.5461 17.9681 18.2014 18.5818 17.5877C19.1955 16.974 19.5402 16.1417 19.5402 15.2738V14.183C19.5354 13.3758 19.2324 12.5988 18.6894 12.0015C19.2324 11.4041 19.5354 10.6272 19.5402 9.81993V8.72915C19.5402 7.86128 19.1955 7.02895 18.5818 6.41527C17.9681 5.80159 17.1358 5.45683 16.2679 5.45683H15.1771C14.3093 5.45683 13.4769 5.80159 12.8633 6.41527C12.2496 7.02895 11.9048 7.86128 11.9048 8.72915ZM17.3587 15.2738C17.3587 15.5631 17.2438 15.8405 17.0392 16.0451C16.8347 16.2497 16.5572 16.3646 16.2679 16.3646H15.1771C14.8879 16.3646 14.6104 16.2497 14.4059 16.0451C14.2013 15.8405 14.0864 15.5631 14.0864 15.2738V14.183C14.0864 13.8937 14.2013 13.6163 14.4059 13.4117C14.6104 13.2072 14.8879 13.0923 15.1771 13.0923H16.2679C16.5572 13.0923 16.8347 13.2072 17.0392 13.4117C17.2438 13.6163 17.3587 13.8937 17.3587 14.183V15.2738ZM17.3587 8.72915V9.81993C17.3587 10.1092 17.2438 10.3867 17.0392 10.5912C16.8347 10.7958 16.5572 10.9107 16.2679 10.9107H15.1771C14.8879 10.9107 14.6104 10.7958 14.4059 10.5912C14.2013 10.3867 14.0864 10.1092 14.0864 9.81993V8.72915C14.0864 8.43986 14.2013 8.16242 14.4059 7.95786C14.6104 7.7533 14.8879 7.63838 15.1771 7.63838H16.2679C16.5572 7.63838 16.8347 7.7533 17.0392 7.95786C17.2438 8.16242 17.3587 8.43986 17.3587 8.72915Z" fill="white"></path></g><defs><clipPath id="clip0_2438_4938"><rect width="25" height="24" fill="white"></rect></clipPath></defs></svg> 